<svg width="139" height="139" viewBox="0 0 139 139" fill="none" xmlns="http://www.w3.org/2000/svg">
<path d="M68.7831 69.6043C112.1 80.8374 121.975 104.286 121.498 114.607C103.384 108.039 71.4843 94.4367 88.7895 92.5702C106.095 90.7038 82.6623 76.4819 68.7831 69.6043Z" fill="white"/>
<path d="M68.7831 69.6041C111.711 56.7964 120.815 32.6877 120.002 22.2344C102.112 29.4875 70.6729 44.3261 88.0298 45.6549C105.387 46.9838 82.4307 62.1748 68.7831 69.6041Z" fill="white"/>
<path d="M68.7861 69.5909C26.0338 58.1705 16.2782 34.3673 16.7444 23.8932C34.6224 30.5672 66.1091 44.3868 49.0324 46.2732C31.9557 48.1597 55.0862 62.6044 68.7861 69.5909Z" fill="white"/>
<path d="M68.7861 69.5911C26.4231 82.2116 17.4376 105.966 18.2402 116.266C35.8943 109.119 66.9205 94.4975 49.7921 93.1886C32.6636 91.8798 55.3179 76.9116 68.7861 69.5911Z" fill="white"/>
</svg>
