<svg width="111" height="27" viewBox="0 0 111 27" fill="none" xmlns="http://www.w3.org/2000/svg">
<path d="M12.9451 13.0996C21.0974 15.2137 22.9558 19.6268 22.866 21.5691C19.4571 20.3331 13.4534 17.7731 16.7103 17.4219C19.9672 17.0706 15.5572 14.394 12.9451 13.0996Z" fill="#A17FFF"/>
<path d="M12.9451 13.0996C21.0242 10.6892 22.7377 6.15192 22.5846 4.18458C19.2178 5.54964 13.3008 8.34228 16.5674 8.59237C19.834 8.84246 15.5136 11.7014 12.9451 13.0996Z" fill="#A17FFF"/>
<path d="M12.9457 13.0971C4.89965 10.9478 3.06363 6.46796 3.15137 4.49672C6.51603 5.75278 12.4419 8.35364 9.22801 8.70867C6.01414 9.0637 10.3674 11.7822 12.9457 13.0971Z" fill="#A17FFF"/>
<path d="M12.9457 13.0971C4.97291 15.4723 3.28182 19.9429 3.43288 21.8813C6.75541 20.5363 12.5946 17.7846 9.37098 17.5382C6.14738 17.2919 10.411 14.4749 12.9457 13.0971Z" fill="#A17FFF"/>
<path d="M38.7679 20.1879C37.8499 20.1879 37.1029 20.0679 36.5269 19.8279C35.9569 19.5819 35.5309 19.1949 35.2489 18.6669C34.9729 18.1329 34.8199 17.4339 34.7899 16.5699C34.7719 16.0659 34.7569 15.4929 34.7449 14.8509C34.7389 14.2029 34.7359 13.5369 34.7359 12.8529C34.7359 12.1689 34.7389 11.5089 34.7449 10.8729C34.7569 10.2369 34.7719 9.67593 34.7899 9.18993C34.8259 8.29593 34.9819 7.57293 35.2579 7.02093C35.5399 6.46893 35.9659 6.06693 36.5359 5.81493C37.1119 5.55693 37.8559 5.42793 38.7679 5.42793C40.0939 5.42793 41.0599 5.70693 41.6659 6.26493C42.2719 6.81693 42.6139 7.73793 42.6919 9.02793C42.7099 9.30393 42.7189 9.63393 42.7189 10.0179C42.7189 10.3959 42.7099 10.7259 42.6919 11.0079H39.9919C40.0099 10.6119 40.0189 10.2279 40.0189 9.85593C40.0189 9.48393 40.0099 9.09993 39.9919 8.70393C39.9679 8.31393 39.8599 8.03793 39.6679 7.87593C39.4819 7.70793 39.1819 7.62393 38.7679 7.62393C38.3359 7.62393 38.0209 7.70793 37.8229 7.87593C37.6309 8.03793 37.5199 8.31393 37.4899 8.70393C37.4539 9.33393 37.4269 9.99693 37.4089 10.6929C37.3909 11.3829 37.3819 12.0849 37.3819 12.7989C37.3819 13.5129 37.3909 14.2179 37.4089 14.9139C37.4269 15.6039 37.4539 16.2639 37.4899 16.8939C37.5199 17.2899 37.6309 17.5719 37.8229 17.7399C38.0209 17.9079 38.3359 17.9919 38.7679 17.9919C39.2179 17.9919 39.5449 17.9079 39.7489 17.7399C39.9589 17.5719 40.0819 17.2899 40.1179 16.8939C40.1299 16.7559 40.1359 16.5909 40.1359 16.3989C40.1419 16.2009 40.1419 16.0059 40.1359 15.8139C40.1359 15.6159 40.1299 15.4479 40.1179 15.3099H39.1279V12.9699H42.7459C42.7759 13.5159 42.7879 14.1159 42.7819 14.7699C42.7759 15.4179 42.7579 16.0179 42.7279 16.5699C42.6679 17.8659 42.3289 18.7929 41.7109 19.3509C41.0989 19.9089 40.1179 20.1879 38.7679 20.1879ZM43.6563 20.0079L45.6543 5.60793H50.2623L52.2603 20.0079H49.4883L49.1823 17.0019H46.7343L46.4283 20.0079H43.6563ZM46.9863 14.6259H48.9303L48.6063 11.4399L48.3903 7.98393H47.5263L47.3103 11.4399L46.9863 14.6259ZM53.4784 20.0079V5.60793H58.3564L59.5444 11.0619L59.7784 17.6319H60.6064L60.8224 11.0619L62.0284 5.60793H66.8884V20.0079H64.0984V15.5799L64.6204 7.98393H63.7744L63.0184 15.7599L61.8124 20.0079H58.4644L57.3664 15.7599L56.5924 7.98393H55.7644L56.2684 15.5799V20.0079H53.4784ZM68.6834 20.0079V5.60793H75.2714V7.98393H71.3834V11.4939H75.0914V13.8699H71.3834V17.6319H75.2714V20.0079H68.6834ZM75.9075 20.0079L78.1575 12.5199L75.9615 5.60793H78.6075L79.5435 8.97393L79.7775 11.4399H80.4975L80.7315 8.97393L81.6315 5.60793H84.2775L82.1895 12.6099L84.3315 20.0079H81.6855L80.7315 16.4619L80.4975 13.8159H79.7775L79.5435 16.4619L78.5535 20.0079H75.9075ZM85.3651 20.0079V5.60793H89.1991C90.5431 5.60793 91.5121 5.88093 92.1061 6.42693C92.7061 6.96693 93.0271 7.86393 93.0691 9.11793C93.0871 9.62193 93.0961 10.0899 93.0961 10.5219C93.0961 10.9539 93.0871 11.4219 93.0691 11.9259C93.0271 13.1739 92.7061 14.0709 92.1061 14.6169C91.5121 15.1629 90.5431 15.4359 89.1991 15.4359H88.0651V20.0079H85.3651ZM88.0651 13.0599H89.1991C89.5771 13.0599 89.8621 12.9729 90.0541 12.7989C90.2461 12.6249 90.3511 12.3819 90.3691 12.0699C90.3871 11.7759 90.3991 11.4459 90.4051 11.0799C90.4111 10.7079 90.4111 10.3389 90.4051 9.97293C90.3991 9.60093 90.3871 9.26793 90.3691 8.97393C90.3511 8.65593 90.2461 8.41293 90.0541 8.24493C89.8621 8.07093 89.5771 7.98393 89.1991 7.98393H88.0651V13.0599ZM93.4551 20.0079L95.4531 5.60793H100.061L102.059 20.0079H99.2871L98.9811 17.0019H96.5331L96.2271 20.0079H93.4551ZM96.7851 14.6259H98.7291L98.4051 11.4399L98.1891 7.98393H97.3251L97.1091 11.4399L96.7851 14.6259ZM104.149 20.0079V15.4179H103.861L101.449 5.60793H104.203L104.977 9.09993L105.247 13.3299H105.751L106.021 9.09993L106.795 5.60793H109.549L107.119 15.4179H106.849V20.0079H104.149Z" fill="white"/>
</svg>
